<svg width="180" height="180" viewBox="0 0 180 180" fill="none" xmlns="http://www.w3.org/2000/svg">
  <defs>
    <linearGradient id="bg" x1="0" y1="0" x2="180" y2="180" gradientUnits="userSpaceOnUse">
      <stop stop-color="#6366f1"/>
      <stop offset="1" stop-color="#4338ca"/>
    </linearGradient>
  </defs>
  <rect width="180" height="180" rx="40" fill="url(#bg)"/>
  <g fill="#ffffff" transform="translate(8 8) scale(2.5)">
    <path d="M14 14h14v14H14V14zm3 3v8h8v-8h-8z"/>
    <rect x="19" y="19" width="4" height="4"/>
    <path d="M36 14h14v14H36V14zm3 3v8h8v-8h-8z"/>
    <rect x="41" y="19" width="4" height="4"/>
    <path d="M14 36h14v14H14V36zm3 3v8h8v-8h-8z"/>
    <rect x="19" y="41" width="4" height="4"/>
    <rect x="36" y="36" width="4" height="4"/>
    <rect x="42" y="36" width="4" height="4"/>
    <rect x="46" y="40" width="4" height="4"/>
    <rect x="36" y="42" width="4" height="4"/>
    <rect x="40" y="46" width="4" height="4"/>
    <rect x="46" y="46" width="4" height="4"/>
  </g>
</svg>
